<svg width="320" height="180" viewBox="0 0 320 180" fill="none" xmlns="http://www.w3.org/2000/svg">
<g clip-path="url(#clip0_2_47)">
<path d="M320 0H0V180H320V0Z" fill="#DDDDDD"/>
<path d="M67.21 83.615L64.41 83.125C64.63 81.6317 65.0467 80.3217 65.66 79.195C66.2733 78.0683 67.0433 77.1317 67.97 76.385C68.8967 75.6317 69.9567 75.065 71.15 74.685C72.35 74.305 73.6367 74.115 75.01 74.115C76.4433 74.115 77.7367 74.3183 78.89 74.725C80.0433 75.1317 81.03 75.6983 81.85 76.425C82.67 77.145 83.2967 77.995 83.73 78.975C84.17 79.9483 84.39 81.0017 84.39 82.135C84.39 83.1217 84.2767 83.9917 84.05 84.745C83.83 85.4983 83.5133 86.155 83.1 86.715C82.68 87.2683 82.1633 87.7383 81.55 88.125C80.93 88.5183 80.2333 88.8417 79.46 89.095C81.3267 89.6817 82.7167 90.5783 83.63 91.785C84.55 92.9917 85.01 94.505 85.01 96.325C85.01 97.8717 84.7233 99.2383 84.15 100.425C83.5767 101.618 82.8033 102.618 81.83 103.425C80.8567 104.238 79.7267 104.852 78.44 105.265C77.16 105.678 75.8033 105.885 74.37 105.885C72.8033 105.885 71.44 105.708 70.28 105.355C69.12 104.995 68.11 104.465 67.25 103.765C66.39 103.058 65.66 102.198 65.06 101.185C64.4533 100.165 63.9367 98.9883 63.51 97.655L65.85 96.685C66.47 96.425 67.0467 96.3583 67.58 96.485C68.12 96.605 68.5133 96.895 68.76 97.355C69.0133 97.855 69.2967 98.3483 69.61 98.835C69.9167 99.3217 70.2833 99.755 70.71 100.135C71.1433 100.515 71.65 100.825 72.23 101.065C72.81 101.298 73.5 101.415 74.3 101.415C75.2067 101.415 75.9967 101.268 76.67 100.975C77.3433 100.682 77.9067 100.298 78.36 99.825C78.8067 99.3517 79.1433 98.825 79.37 98.245C79.59 97.665 79.7 97.0817 79.7 96.495C79.7 95.7483 79.62 95.0717 79.46 94.465C79.3067 93.8517 78.9767 93.3317 78.47 92.905C77.97 92.4717 77.25 92.135 76.31 91.895C75.3767 91.6483 74.12 91.525 72.54 91.525V87.745C73.8467 87.7317 74.93 87.6083 75.79 87.375C76.65 87.1483 77.3333 86.8317 77.84 86.425C78.3467 86.0117 78.7 85.5183 78.9 84.945C79.1 84.3717 79.2 83.7417 79.2 83.055C79.2 81.595 78.7933 80.485 77.98 79.725C77.16 78.965 76.07 78.585 74.71 78.585C74.0833 78.585 73.5033 78.675 72.97 78.855C72.4367 79.035 71.96 79.285 71.54 79.605C71.12 79.925 70.7667 80.3017 70.48 80.735C70.1933 81.1617 69.9767 81.635 69.83 82.155C69.59 82.815 69.27 83.2517 68.87 83.465C68.4767 83.6783 67.9233 83.7283 67.21 83.615ZM100.15 100.595H108.12C108.693 100.595 109.15 100.758 109.49 101.085C109.823 101.405 109.99 101.832 109.99 102.365V105.545H88.66V103.785C88.66 103.425 88.7367 103.048 88.89 102.655C89.0433 102.262 89.2833 101.905 89.61 101.585L99.05 92.125C99.8367 91.325 100.543 90.5583 101.17 89.825C101.79 89.0983 102.31 88.375 102.73 87.655C103.143 86.9417 103.46 86.215 103.68 85.475C103.907 84.735 104.02 83.9583 104.02 83.145C104.02 82.3983 103.91 81.7417 103.69 81.175C103.477 80.6083 103.173 80.1317 102.78 79.745C102.387 79.3583 101.913 79.0683 101.36 78.875C100.807 78.6817 100.187 78.585 99.5 78.585C98.8667 78.585 98.2833 78.675 97.75 78.855C97.21 79.035 96.7333 79.285 96.32 79.605C95.9067 79.925 95.5567 80.3017 95.27 80.735C94.9833 81.1617 94.7667 81.635 94.62 82.155C94.3733 82.815 94.0567 83.2517 93.67 83.465C93.2833 83.6783 92.7267 83.7283 92 83.615L89.2 83.125C89.4133 81.6317 89.83 80.3217 90.45 79.195C91.0633 78.0683 91.8333 77.1317 92.76 76.385C93.6867 75.6317 94.7467 75.065 95.94 74.685C97.14 74.305 98.4267 74.115 99.8 74.115C101.233 74.115 102.547 74.325 103.74 74.745C104.927 75.1717 105.943 75.7717 106.79 76.545C107.637 77.3183 108.297 78.2483 108.77 79.335C109.243 80.4283 109.48 81.6383 109.48 82.965C109.48 84.1117 109.31 85.175 108.97 86.155C108.637 87.1283 108.187 88.0583 107.62 88.945C107.053 89.8317 106.39 90.6917 105.63 91.525C104.87 92.3583 104.073 93.205 103.24 94.065L96.23 101.225C96.9033 101.025 97.5733 100.872 98.24 100.765C98.9067 100.652 99.5433 100.595 100.15 100.595ZM135.84 90.005C135.84 92.7117 135.55 95.065 134.97 97.065C134.383 99.065 133.58 100.715 132.56 102.015C131.533 103.322 130.32 104.295 128.92 104.935C127.527 105.568 126.02 105.885 124.4 105.885C122.78 105.885 121.277 105.568 119.89 104.935C118.51 104.295 117.31 103.322 116.29 102.015C115.277 100.715 114.483 99.065 113.91 97.065C113.337 95.065 113.05 92.7117 113.05 90.005C113.05 87.2783 113.337 84.9183 113.91 82.925C114.483 80.9317 115.277 79.285 116.29 77.985C117.31 76.6783 118.51 75.705 119.89 75.065C121.277 74.4317 122.78 74.115 124.4 74.115C126.02 74.115 127.527 74.4317 128.92 75.065C130.32 75.705 131.533 76.6783 132.56 77.985C133.58 79.285 134.383 80.9317 134.97 82.925C135.55 84.9183 135.84 87.2783 135.84 90.005ZM130.35 90.005C130.35 87.7517 130.187 85.8883 129.86 84.415C129.527 82.935 129.087 81.7583 128.54 80.885C127.987 80.0117 127.35 79.3983 126.63 79.045C125.917 78.6917 125.173 78.515 124.4 78.515C123.64 78.515 122.903 78.6917 122.19 79.045C121.483 79.3983 120.857 80.0117 120.31 80.885C119.77 81.7583 119.337 82.935 119.01 84.415C118.69 85.8883 118.53 87.7517 118.53 90.005C118.53 92.2517 118.69 94.115 119.01 95.595C119.337 97.0683 119.77 98.2417 120.31 99.115C120.857 99.9883 121.483 100.602 122.19 100.955C122.903 101.308 123.64 101.485 124.4 101.485C125.173 101.485 125.917 101.308 126.63 100.955C127.35 100.602 127.987 99.9883 128.54 99.115C129.087 98.2417 129.527 97.0683 129.86 95.595C130.187 94.115 130.35 92.2517 130.35 90.005ZM169.98 98.425L167.16 101.205L159.87 93.915L152.52 101.245L149.7 98.475L157.06 91.095L150.05 84.085L152.84 81.295L159.85 88.305L166.82 81.335L169.66 84.135L162.67 91.115L169.98 98.425ZM199.41 101.565H205V105.545H187.8V101.565H194.1V83.445C194.1 82.725 194.123 81.985 194.17 81.225L189.69 84.965C189.437 85.1717 189.183 85.2983 188.93 85.345C188.677 85.3983 188.44 85.4017 188.22 85.355C188 85.315 187.803 85.2417 187.63 85.135C187.457 85.0217 187.327 84.9017 187.24 84.775L185.57 82.475L195.05 74.415H199.41V101.565ZM220.16 101.735C221.033 101.735 221.8 101.612 222.46 101.365C223.12 101.112 223.677 100.765 224.13 100.325C224.577 99.8783 224.917 99.345 225.15 98.725C225.377 98.1117 225.49 97.445 225.49 96.725C225.49 95.025 225.017 93.735 224.07 92.855C223.123 91.9817 221.82 91.545 220.16 91.545C218.493 91.545 217.19 91.9817 216.25 92.855C215.303 93.735 214.83 95.025 214.83 96.725C214.83 97.445 214.943 98.1117 215.17 98.725C215.397 99.345 215.737 99.8783 216.19 100.325C216.643 100.765 217.2 101.112 217.86 101.365C218.52 101.612 219.287 101.735 220.16 101.735ZM220.16 78.115C219.373 78.115 218.693 78.235 218.12 78.475C217.547 78.7217 217.07 79.0483 216.69 79.455C216.31 79.8617 216.03 80.3317 215.85 80.865C215.67 81.3917 215.58 81.9483 215.58 82.535C215.58 83.155 215.657 83.755 215.81 84.335C215.957 84.915 216.21 85.4317 216.57 85.885C216.93 86.3383 217.403 86.6983 217.99 86.965C218.577 87.2383 219.3 87.375 220.16 87.375C221.02 87.375 221.743 87.2383 222.33 86.965C222.917 86.6983 223.39 86.3383 223.75 85.885C224.11 85.4317 224.363 84.915 224.51 84.335C224.663 83.755 224.74 83.155 224.74 82.535C224.74 81.9483 224.647 81.3917 224.46 80.865C224.273 80.3317 223.993 79.8617 223.62 79.455C223.247 79.0483 222.773 78.7217 222.2 78.475C221.627 78.235 220.947 78.115 220.16 78.115ZM225.4 89.335C227.293 89.9483 228.693 90.8917 229.6 92.165C230.5 93.4317 230.95 94.9817 230.95 96.815C230.95 98.1883 230.69 99.435 230.17 100.555C229.643 101.675 228.907 102.628 227.96 103.415C227.013 104.202 225.88 104.812 224.56 105.245C223.233 105.672 221.767 105.885 220.16 105.885C218.553 105.885 217.087 105.672 215.76 105.245C214.433 104.812 213.297 104.202 212.35 103.415C211.41 102.628 210.677 101.675 210.15 100.555C209.63 99.435 209.37 98.1883 209.37 96.815C209.37 94.9817 209.82 93.4317 210.72 92.165C211.62 90.8917 213.017 89.9483 214.91 89.335C213.41 88.7017 212.283 87.805 211.53 86.645C210.777 85.485 210.4 84.0883 210.4 82.455C210.4 81.2817 210.64 80.185 211.12 79.165C211.6 78.145 212.27 77.2583 213.13 76.505C213.99 75.7583 215.017 75.1717 216.21 74.745C217.41 74.325 218.727 74.115 220.16 74.115C221.593 74.115 222.907 74.325 224.1 74.745C225.3 75.1717 226.33 75.7583 227.19 76.505C228.05 77.2583 228.72 78.145 229.2 79.165C229.68 80.185 229.92 81.2817 229.92 82.455C229.92 84.0883 229.543 85.485 228.79 86.645C228.037 87.805 226.907 88.7017 225.4 89.335ZM256.49 90.005C256.49 92.7117 256.2 95.065 255.62 97.065C255.04 99.065 254.24 100.715 253.22 102.015C252.193 103.322 250.98 104.295 249.58 104.935C248.187 105.568 246.68 105.885 245.06 105.885C243.44 105.885 241.937 105.568 240.55 104.935C239.17 104.295 237.97 103.322 236.95 102.015C235.93 100.715 235.133 99.065 234.56 97.065C233.987 95.065 233.7 92.7117 233.7 90.005C233.7 87.2783 233.987 84.9183 234.56 82.925C235.133 80.9317 235.93 79.285 236.95 77.985C237.97 76.6783 239.17 75.705 240.55 75.065C241.937 74.4317 243.44 74.115 245.06 74.115C246.68 74.115 248.187 74.4317 249.58 75.065C250.98 75.705 252.193 76.6783 253.22 77.985C254.24 79.285 255.04 80.9317 255.62 82.925C256.2 84.9183 256.49 87.2783 256.49 90.005ZM251.01 90.005C251.01 87.7517 250.847 85.8883 250.52 84.415C250.187 82.935 249.743 81.7583 249.19 80.885C248.643 80.0117 248.01 79.3983 247.29 79.045C246.577 78.6917 245.833 78.515 245.06 78.515C244.3 78.515 243.563 78.6917 242.85 79.045C242.143 79.3983 241.517 80.0117 240.97 80.885C240.423 81.7583 239.99 82.935 239.67 84.415C239.35 85.8883 239.19 87.7517 239.19 90.005C239.19 92.2517 239.35 94.115 239.67 95.595C239.99 97.0683 240.423 98.2417 240.97 99.115C241.517 99.9883 242.143 100.602 242.85 100.955C243.563 101.308 244.3 101.485 245.06 101.485C245.833 101.485 246.577 101.308 247.29 100.955C248.01 100.602 248.643 99.9883 249.19 99.115C249.743 98.2417 250.187 97.0683 250.52 95.595C250.847 94.115 251.01 92.2517 251.01 90.005Z" fill="#999999"/>
<path d="M24.2546 22.0909V33H21.9482V22.0909H24.2546ZM26.1096 33V24.8182H28.2723V26.2617H28.3682C28.5386 25.7823 28.8227 25.4041 29.2204 25.1271C29.6182 24.8501 30.094 24.7116 30.648 24.7116C31.2091 24.7116 31.6867 24.8519 32.0809 25.1325C32.4751 25.4094 32.7378 25.7859 32.8692 26.2617H32.9545C33.1214 25.793 33.4232 25.4183 33.86 25.1378C34.3003 24.8537 34.8206 24.7116 35.4207 24.7116C36.1842 24.7116 36.8039 24.9549 37.2797 25.4414C37.7591 25.9244 37.9988 26.6097 37.9988 27.4975V33H35.735V27.945C35.735 27.4904 35.6143 27.1495 35.3728 26.9222C35.1313 26.695 34.8295 26.5813 34.4672 26.5813C34.0553 26.5813 33.7339 26.7127 33.5031 26.9755C33.2723 27.2347 33.1569 27.5774 33.1569 28.0036V33H30.9569V27.897C30.9569 27.4957 30.8415 27.1761 30.6107 26.9382C30.3834 26.7003 30.0834 26.5813 29.7105 26.5813C29.4584 26.5813 29.2311 26.6452 29.0287 26.7731C28.8298 26.8974 28.6718 27.0732 28.5546 27.3004C28.4374 27.5241 28.3788 27.7869 28.3788 28.0888V33H26.1096ZM42.1244 33.1545C41.6024 33.1545 41.1372 33.0639 40.7288 32.8828C40.3204 32.6982 39.9972 32.4265 39.7593 32.0678C39.5249 31.7056 39.4078 31.2546 39.4078 30.7148C39.4078 30.2603 39.4912 29.8786 39.6581 29.5696C39.825 29.2607 40.0523 29.0121 40.3399 28.8239C40.6276 28.6357 40.9543 28.4936 41.32 28.3977C41.6894 28.3018 42.0764 28.2344 42.4813 28.1953C42.9571 28.1456 43.3406 28.0994 43.6318 28.0568C43.923 28.0107 44.1343 27.9432 44.2657 27.8544C44.3971 27.7656 44.4628 27.6342 44.4628 27.4602V27.4283C44.4628 27.0909 44.3563 26.8299 44.1432 26.6452C43.9337 26.4606 43.6354 26.3683 43.2483 26.3683C42.8399 26.3683 42.515 26.4588 42.2735 26.6399C42.032 26.8175 41.8722 27.0412 41.7941 27.3111L39.6954 27.1406C39.8019 26.6435 40.0115 26.2138 40.324 25.8516C40.6365 25.4858 41.0395 25.2053 41.5331 25.0099C42.0303 24.8111 42.6056 24.7116 43.259 24.7116C43.7135 24.7116 44.1485 24.7649 44.564 24.8714C44.983 24.978 45.3541 25.1431 45.6773 25.3668C46.004 25.5906 46.2615 25.8782 46.4497 26.2298C46.6379 26.5778 46.732 26.995 46.732 27.4815V33H44.58V31.8654H44.5161C44.3847 32.1211 44.2089 32.3466 43.9887 32.5419C43.7686 32.7337 43.504 32.8846 43.195 32.9947C42.8861 33.1012 42.5292 33.1545 42.1244 33.1545ZM42.7742 31.5884C43.108 31.5884 43.4028 31.5227 43.6585 31.3913C43.9142 31.2564 44.1148 31.0753 44.2604 30.848C44.406 30.6207 44.4788 30.3633 44.4788 30.0756V29.2074C44.4078 29.2536 44.3101 29.2962 44.1858 29.3352C44.0651 29.3707 43.9284 29.4045 43.7757 29.4364C43.623 29.4648 43.4703 29.4915 43.3176 29.5163C43.1649 29.5376 43.0264 29.5572 42.9021 29.5749C42.6357 29.614 42.4031 29.6761 42.2043 29.7614C42.0054 29.8466 41.8509 29.962 41.7409 30.1076C41.6308 30.2496 41.5757 30.4272 41.5757 30.6403C41.5757 30.9492 41.6876 31.1854 41.9113 31.3487C42.1386 31.5085 42.4262 31.5884 42.7742 31.5884ZM52.1785 36.2386C51.4434 36.2386 50.8131 36.1374 50.2876 35.935C49.7655 35.7362 49.3501 35.4645 49.0411 35.12C48.7322 34.7756 48.5315 34.3885 48.4392 33.9588L50.5379 33.6765C50.6018 33.8398 50.703 33.9925 50.8415 34.1346C50.98 34.2766 51.1629 34.3903 51.3902 34.4755C51.621 34.5643 51.9015 34.6087 52.2318 34.6087C52.7254 34.6087 53.132 34.4879 53.4516 34.2464C53.7748 34.0085 53.9363 33.609 53.9363 33.0479V31.5511H53.8405C53.741 31.7784 53.5919 31.9933 53.393 32.1957C53.1942 32.3981 52.9385 32.5632 52.626 32.6911C52.3135 32.8189 51.9406 32.8828 51.5074 32.8828C50.893 32.8828 50.3337 32.7408 49.8295 32.4567C49.3287 32.169 48.9292 31.7305 48.6309 31.141C48.3362 30.5479 48.1888 29.7987 48.1888 28.8931C48.1888 27.9663 48.3398 27.1921 48.6416 26.5707C48.9434 25.9492 49.3447 25.484 49.8454 25.1751C50.3497 24.8661 50.9019 24.7116 51.502 24.7116C51.9601 24.7116 52.3437 24.7898 52.6526 24.946C52.9616 25.0987 53.2101 25.2905 53.3983 25.5213C53.5901 25.7486 53.7375 25.9723 53.8405 26.1925H53.9257V24.8182H56.1789V33.0799C56.1789 33.7759 56.0084 34.3583 55.6675 34.8271C55.3266 35.2958 54.8543 35.6474 54.2506 35.8817C53.6505 36.1197 52.9598 36.2386 52.1785 36.2386ZM52.2265 31.1783C52.5922 31.1783 52.9012 31.0877 53.1533 30.9066C53.409 30.7219 53.6043 30.4592 53.7393 30.1183C53.8778 29.7738 53.947 29.3619 53.947 28.8825C53.947 28.4031 53.8795 27.9876 53.7446 27.636C53.6096 27.2809 53.4143 27.0057 53.1586 26.8104C52.903 26.6151 52.5922 26.5174 52.2265 26.5174C51.8536 26.5174 51.5393 26.6186 51.2836 26.821C51.028 27.0199 50.8344 27.2969 50.703 27.652C50.5716 28.0071 50.5059 28.4173 50.5059 28.8825C50.5059 29.3548 50.5716 29.7631 50.703 30.1076C50.838 30.4485 51.0315 30.7131 51.2836 30.9013C51.5393 31.0859 51.8536 31.1783 52.2265 31.1783ZM61.7133 33.1598C60.8717 33.1598 60.1473 32.9893 59.54 32.6484C58.9363 32.304 58.4711 31.8175 58.1444 31.1889C57.8177 30.5568 57.6544 29.8093 57.6544 28.9464C57.6544 28.1048 57.8177 27.3661 58.1444 26.7305C58.4711 26.0948 58.931 25.5994 59.5241 25.2443C60.1206 24.8892 60.8202 24.7116 61.6228 24.7116C62.1626 24.7116 62.665 24.7987 63.1302 24.9727C63.599 25.1431 64.0074 25.4006 64.3554 25.745C64.7069 26.0895 64.9804 26.5227 65.1757 27.0447C65.371 27.5632 65.4687 28.1705 65.4687 28.8665V29.4897H58.5599V28.0835H63.3327C63.3327 27.7567 63.2616 27.4673 63.1196 27.2152C62.9775 26.9631 62.7805 26.766 62.5283 26.6239C62.2797 26.4783 61.9903 26.4055 61.6601 26.4055C61.3156 26.4055 61.0102 26.4854 60.7439 26.6452C60.4811 26.8015 60.2751 27.0128 60.126 27.2791C59.9768 27.5419 59.9005 27.8349 59.8969 28.158V29.495C59.8969 29.8999 59.9715 30.2496 60.1206 30.5444C60.2733 30.8391 60.4882 31.0664 60.7652 31.2262C61.0422 31.386 61.3706 31.4659 61.7506 31.4659C62.0028 31.4659 62.2336 31.4304 62.4431 31.3594C62.6526 31.2884 62.8319 31.1818 62.9811 31.0398C63.1302 30.8977 63.2439 30.7237 63.322 30.5178L65.4207 30.6562C65.3142 31.1605 65.0958 31.6009 64.7655 31.9773C64.4388 32.3501 64.0162 32.6413 63.4978 32.8509C62.9829 33.0568 62.3881 33.1598 61.7133 33.1598Z" fill="#999999"/>
</g>
<defs>
<clipPath id="clip0_2_47">
<rect width="320" height="180" fill="white"/>
</clipPath>
</defs>
</svg>
